<svg width="16" height="20" viewBox="0 0 16 20" fill="none" xmlns="http://www.w3.org/2000/svg">
<path fill-rule="evenodd" clip-rule="evenodd" d="M12 4C12 5.86384 10.7252 7.42994 9 7.87398V15C9 15.5523 8.55228 16 8 16C7.44771 16 7 15.5523 7 15L7 7.87398C5.27477 7.42994 4 5.86384 4 4C4 1.79086 5.79086 0 8 0C10.2091 0 12 1.79086 12 4ZM8 6C9.10457 6 10 5.10457 10 4C10 2.89543 9.10457 2 8 2C6.89543 2 6 2.89543 6 4C6 5.10457 6.89543 6 8 6Z" fill="#171725"/>
<path d="M4.75579 12.9535C5.28241 12.7871 5.5744 12.2253 5.40797 11.6987C5.24155 11.172 4.67973 10.8801 4.15312 11.0465C3.02261 11.4038 2.017 11.9301 1.27547 12.6114C0.531298 13.2952 0 14.1912 0 15.2415C0 16.825 1.17973 18.0298 2.5772 18.7802C4.01605 19.5527 5.93507 20 8 20C10.0649 20 11.984 19.5527 13.4228 18.7802C14.8203 18.0298 16 16.825 16 15.2415C16 14.1912 15.4687 13.2952 14.7245 12.6114C13.983 11.9301 12.9774 11.4038 11.8469 11.0465C11.3203 10.8801 10.7585 11.172 10.592 11.6987C10.4256 12.2253 10.7176 12.7871 11.2442 12.9535C12.1809 13.2495 12.9025 13.6533 13.3714 14.0842C13.8377 14.5126 14 14.9106 14 15.2415C14 15.7337 13.6127 16.4081 12.4767 17.0181C11.382 17.6059 9.80107 18 8 18C6.19893 18 4.61796 17.6059 3.52331 17.0181C2.38727 16.4081 2 15.7337 2 15.2415C2 14.9106 2.16235 14.5126 2.62862 14.0842C3.09752 13.6533 3.81913 13.2495 4.75579 12.9535Z" fill="#171725"/>
</svg>
