<svg width="96" height="96" viewBox="0 0 96 96" fill="none" xmlns="http://www.w3.org/2000/svg">
<g filter="url(#filter0_d_139_60)">
<path d="M49 40C49 39.4477 48.5523 39 48 39C47.4477 39 47 39.4477 47 40V46L41 46C40.4477 46 40 46.4477 40 47C40 47.5523 40.4477 48 41 48H47V54C47 54.5523 47.4477 55 48 55C48.5523 55 49 54.5523 49 54V48H55C55.5523 48 56 47.5523 56 47C56 46.4477 55.5523 46 55 46L49 46V40Z" fill="#92929D"/>
<path d="M48 69C35.8497 69 26 59.1503 26 47H24C24 60.2548 34.7452 71 48 71V69ZM70 47C70 59.1503 60.1503 69 48 69V71C61.2548 71 72 60.2548 72 47H70ZM48 25C60.1503 25 70 34.8497 70 47H72C72 33.7452 61.2548 23 48 23V25ZM48 23C34.7452 23 24 33.7452 24 47H26C26 34.8497 35.8497 25 48 25V23Z" fill="#92929D"/>
</g>
<defs>
<filter id="filter0_d_139_60" x="0" y="0" width="96" height="96" filterUnits="userSpaceOnUse" color-interpolation-filters="sRGB">
<feFlood flood-opacity="0" result="BackgroundImageFix"/>
<feColorMatrix in="SourceAlpha" type="matrix" values="0 0 0 0 0 0 0 0 0 0 0 0 0 0 0 0 0 0 127 0" result="hardAlpha"/>
<feOffset dy="1"/>
<feGaussianBlur stdDeviation="12.5"/>
<feColorMatrix type="matrix" values="0 0 0 0 1 0 0 0 0 0.729412 0 0 0 0 0 0 0 0 0.2 0"/>
<feBlend mode="normal" in2="BackgroundImageFix" result="effect1_dropShadow_139_60"/>
<feBlend mode="normal" in="SourceGraphic" in2="effect1_dropShadow_139_60" result="shape"/>
</filter>
</defs>
</svg>
