<svg width="48" height="48" viewBox="0 0 48 48" fill="none" xmlns="http://www.w3.org/2000/svg">
<path d="M19.5 17.5C19.1667 17.6667 16.4 18.4 8 20L15 29L13 40.5L24.5 35.5L35 40.5L33.5 29L41 20L29.5 17.5L23.5 7.5L19.5 17.5Z" fill="#F6C949"/>
<path d="M44 19.34C43.8736 18.9742 43.6439 18.6529 43.3386 18.415C43.0333 18.1772 42.6656 18.033 42.28 18L30.9 16.34L25.8 6.00002C25.6362 5.66187 25.3805 5.3767 25.0621 5.17716C24.7438 4.97763 24.3757 4.8718 24 4.8718C23.6242 4.8718 23.2561 4.97763 22.9378 5.17716C22.6194 5.3767 22.3637 5.66187 22.2 6.00002L17.1 16.32L5.71995 18C5.3498 18.0526 5.0018 18.2079 4.71546 18.4483C4.42911 18.6887 4.21587 19.0046 4.09995 19.36C3.99384 19.7074 3.98432 20.0771 4.07241 20.4294C4.1605 20.7818 4.34287 21.1035 4.59995 21.36L12.86 29.36L10.86 40.72C10.7886 41.095 10.8259 41.4825 10.9677 41.8369C11.1095 42.1913 11.3497 42.4977 11.66 42.72C11.9624 42.9362 12.3191 43.0639 12.6901 43.0886C13.061 43.1133 13.4315 43.0342 13.76 42.86L24 37.52L34.2 42.88C34.4807 43.0384 34.7977 43.1211 35.12 43.12C35.5436 43.1215 35.9568 42.9885 36.3 42.74C36.6102 42.5177 36.8505 42.2113 36.9922 41.8569C37.134 41.5025 37.1714 41.115 37.1 40.74L35.1 29.38L43.36 21.38C43.6487 21.1354 43.8621 20.8138 43.9754 20.4527C44.0887 20.0916 44.0972 19.7058 44 19.34ZM31.7 27.34C31.4654 27.5669 31.2899 27.8477 31.1888 28.158C31.0877 28.4682 31.0641 28.7985 31.12 29.12L32.56 37.5L25.04 33.5C24.7506 33.3459 24.4278 33.2653 24.1 33.2653C23.7721 33.2653 23.4493 33.3459 23.16 33.5L15.64 37.5L17.08 29.12C17.1358 28.7985 17.1122 28.4682 17.0111 28.158C16.91 27.8477 16.7345 27.5669 16.5 27.34L10.5 21.34L18.92 20.12C19.244 20.0749 19.552 19.9511 19.817 19.7593C20.082 19.5675 20.2959 19.3137 20.44 19.02L24 11.4L27.76 19.04C27.904 19.3337 28.118 19.5875 28.383 19.7793C28.648 19.9711 28.956 20.0949 29.28 20.14L37.7 21.36L31.7 27.34Z" fill="#F6C949"/>
</svg>
